<mxfile host="app.diagrams.net" modified="2024-08-29T01:40:33.193Z" agent="Mozilla/5.0 (Windows NT 10.0; Win64; x64) AppleWebKit/537.36 (KHTML, like Gecko) Chrome/128.0.0.0 Safari/537.36" version="24.4.4" etag="DhW03HPGMATV0Zyk8o2y" type="github">
  <diagram name="Page-1" id="0V-_tqAfgKN9vxd8uXuz">
    <mxGraphModel>
      <root>
        <mxCell id="0" />
        <mxCell id="1" parent="0" />
      </root>
    </mxGraphModel>
  </diagram>
</mxfile>
